<?xml version="1.0" encoding="utf-8"?>
<!-- Generator: Adobe Illustrator 25.3.1, SVG Export Plug-In . SVG Version: 6.00 Build 0)  -->
<svg version="1.1" id="Layer_2_1_" xmlns="http://www.w3.org/2000/svg" xmlns:xlink="http://www.w3.org/1999/xlink" x="0px" y="0px"
	 viewBox="0 0 50 50" style="enable-background:new 0 0 50 50;" xml:space="preserve">
<style type="text/css">
	.st0{fill:#FFFFFF;}
</style>
<path class="st0" d="M10,11.7c3.3,0,6.6,0,9.9,0c0,0,0,0,0.1,0c1.3,0.3,1.9,1.1,1.9,2.4c0,0.8,0,1.5,0,2.3c0,0.1,0,0.1,0,0.2
	c0.1,0,0.2,0,0.3,0c3.8,0,7.6,0,11.5,0c0.2,0,0.4,0,0.5,0c1.2,0.2,1.9,1.1,1.9,2.3c0,1.5,0,2.9,0,4.4c0,0.1,0,0.2,0,0.3
	c0.1,0,0.2,0,0.3,0c1.3,0,2.7,0,4,0c1.1,0,2.1,0,3.2,0c0.8,0,1.2,0.3,1.4,0.9v0.1c-0.1,0.2-0.2,0.5-0.3,0.7
	c-2.5,3.7-4.9,7.5-7.4,11.2c-0.2,0.3-0.5,0.5-0.7,0.8c-0.4,0.3-0.9,0.6-1.5,0.7c-0.4,0.1-0.8,0.1-1.2,0.2c-7.9,0-15.7,0-23.6,0
	c-0.1,0-0.2,0-0.3,0c-0.3-0.1-0.5-0.1-0.8-0.2C8.4,37.5,8,36.7,8,35.8c0-3.7,0-7.4,0-11.1c0-3.5,0-7.1,0-10.6c0-1.1,0.6-1.9,1.6-2.3
	C9.7,11.8,9.9,11.8,10,11.7z M42.3,25.6c-0.1,0-0.2,0-0.3,0c-2.6,0-5.3,0-7.9,0c-4.7,0-9.4,0-14,0c-0.6,0-1.1,0.2-1.6,0.5
	c-0.1,0.1-0.3,0.2-0.4,0.4c-2.2,3.3-4.3,6.5-6.5,9.8c0,0-0.1,0.1-0.1,0.2c0.1,0,0.1,0,0.2,0c7.4,0,14.7,0,22.1,0
	c0.2,0,0.5,0,0.7-0.1c0.5-0.2,1-0.4,1.3-0.9c2.1-3.2,4.2-6.4,6.4-9.6C42.2,25.7,42.2,25.7,42.3,25.6z M34.3,23.7c0-0.1,0-0.2,0-0.3
	c0-1.4,0-2.8,0-4.2c0-0.5-0.1-0.6-0.6-0.6c-4.4,0-8.9,0-13.3,0c-0.1,0-0.2,0-0.3,0c0-0.1,0-0.2,0-0.3c0-1.4,0-2.8,0-4.1
	c0-0.4-0.2-0.6-0.6-0.6c-3,0-6.1,0-9.1,0c-0.4,0-0.5,0.1-0.5,0.5c0,7,0,14,0,21c0,0.1,0,0.1,0,0.2c0.1,0,0.1-0.1,0.1-0.1
	c2.2-3.2,4.3-6.5,6.5-9.8c0.3-0.4,0.6-0.7,0.9-0.9c0.8-0.5,1.7-0.8,2.6-0.8c4.6,0,9.3,0,13.9,0C34.1,23.7,34.2,23.7,34.3,23.7z"/>
</svg>
