<svg xmlns="http://www.w3.org/2000/svg" xmlns:xlink="http://www.w3.org/1999/xlink" id="Layer_1" x="0" y="0" version="1.1" viewBox="0 0 50 50" xml:space="preserve" style="enable-background:new 0 0 50 50"><style type="text/css">.st0{fill-rule:evenodd;clip-rule:evenodd;fill:#fff}</style><path d="M36.6,41.5H13.4c-1.7,0-3.1-1.4-3.1-3.1v-4.6c0-3.8,1.8-6.9,5.2-9c1.1-0.7,2.4-1.2,3.8-1.6	c-0.8-0.7-1.5-1.5-2-2.4c-0.8-1.3-1.2-2.9-1.2-4.4c0-4.9,4-8.9,8.9-8.9s8.9,4,8.9,8.9c0,1.6-0.4,3.1-1.2,4.4c-0.5,0.9-1.2,1.7-2,2.4	c1.4,0.4,2.7,1,3.8,1.6c3.4,2,5.2,5.1,5.2,9v4.6C39.7,40.1,38.3,41.5,36.6,41.5z M25,10.4c-3.3,0-6,2.7-6,6s2.7,6,6,6s6-2.7,6-6	S28.3,10.4,25,10.4z M13.2,33.8v4.6c0,0.1,0.1,0.2,0.2,0.2h23.2c0.1,0,0.2-0.1,0.2-0.2v-4.6c0-3-1.4-5.2-4.2-6.7	c-2-1.1-4.9-1.8-7.7-1.8C20.6,25.3,13.2,27.1,13.2,33.8z" class="st0"/></svg>
